<svg id="Layer_1" data-name="Layer 1" xmlns="http://www.w3.org/2000/svg" viewBox="0 0 400 300"><defs><style>.cls-1{fill:#8db4b7;}.cls-2,.cls-6{fill:none;}.cls-2,.cls-3,.cls-6{stroke:#fff;}.cls-2,.cls-3,.cls-4,.cls-6{stroke-miterlimit:10;}.cls-2{opacity:0.4;}.cls-3,.cls-5{fill:#fff;}.cls-4{fill:#f2c063;stroke:#f2c063;}.cls-6{stroke-width:2px;}</style></defs><rect class="cls-1" x="-0.5" width="400" height="300"/><line class="cls-2" x1="44.06" y1="226.52" x2="358.56" y2="226.52"/><line class="cls-2" x1="44.06" y1="174.66" x2="358.56" y2="174.66"/><line class="cls-2" x1="46" y1="127.66" x2="358.56" y2="127.66"/><line class="cls-2" x1="47" y1="74.66" x2="358.56" y2="74.66"/><path class="cls-3" d="M65.75,140.27s132.79-9,230.8-104.8l-9.49-6,37.94-9-3.16,35.93-9.78-6S227,134.28,65.75,140.27Z"/><path class="cls-4" d="M96.21,178.53l-3.76,30.71,7.83-.15c-15.49-2-14.93,8.12-14.93,8.12v53.52c21.75,8.49,33.69,0,33.69,0V220.39c0-10-6.52-12-6.52-12L110,178.53"/><polygon class="cls-4" points="94.58 178.43 111.18 178.43 110.45 175.54 95.69 175.54 94.58 178.43"/><path class="cls-5" d="M87.65,268.55l1.63-51.82s-.82-5.36,6.93-6c0,0-4.89,3.27-4.28,6.63l-1.84,53.18Z"/><polygon class="cls-5" points="99.06 179.53 96.21 208.83 93.78 209 97.4 179.53 99.06 179.53"/><path class="cls-4" d="M143.73,161.44,140,197.62l7.83-.18c-15.49-2.34-14.94,9.56-14.94,9.56v63.06c21.76,10,33.69,0,33.69,0V210.75c0-11.74-6.52-14.09-6.52-14.09l-2.48-35.22"/><polygon class="cls-4" points="142.1 161.32 158.7 161.32 157.98 157.92 143.22 157.92 142.1 161.32"/><path class="cls-5" d="M135.17,267.49l1.63-61.05s-.82-6.31,6.93-7.07c0,0-4.89,3.86-4.28,7.81l-1.83,62.66Z"/><polygon class="cls-5" points="146.59 162.62 143.73 197.14 141.31 197.34 144.92 162.62 146.59 162.62"/><path class="cls-4" d="M193.61,129.66,189.85,176l7.83-.23c-15.49-3-14.93,12.25-14.93,12.25v80.78c21.75,12.81,33.69,0,33.69,0v-76c0-15-6.53-18.05-6.53-18.05l-2.48-45.12"/><polygon class="cls-4" points="191.97 129.5 208.57 129.5 207.85 125.15 193.09 125.15 191.97 129.5"/><path class="cls-5" d="M185,265.52l1.63-78.21s-.81-8.09,6.94-9.06c0,0-4.9,4.94-4.29,10l-1.83,80.27Z"/><polygon class="cls-5" points="196.46 131.16 193.61 175.39 191.18 175.65 194.79 131.16 196.46 131.16"/><path class="cls-4" d="M244,106.85l-3.75,53.65,7.83-.26c-15.5-3.48-14.94,14.17-14.94,14.17v93.5c21.76,14.83,33.69,0,33.69,0V180c0-17.41-6.52-20.89-6.52-20.89l-2.49-52.23"/><polygon class="cls-4" points="242.37 106.67 258.97 106.67 258.25 101.63 243.49 101.63 242.37 106.67"/><path class="cls-5" d="M235.44,264.11l1.63-90.53s-.82-9.37,6.93-10.48c0,0-4.89,5.71-4.28,11.58l-1.84,92.91Z"/><polygon class="cls-5" points="246.85 108.59 244 159.79 241.58 160.09 245.19 108.59 246.85 108.59"/><path class="cls-4" d="M296.91,86.36l-3.76,60.21,7.83-.3c-15.49-3.91-14.93,15.91-14.93,15.91V267.1c21.75,16.65,33.69,0,33.69,0V168.41c0-19.53-6.53-23.44-6.53-23.44l-2.48-58.61"/><polygon class="cls-4" points="295.27 86.16 311.88 86.16 311.15 80.5 296.39 80.5 295.27 86.16"/><path class="cls-5" d="M288.34,262.84,290,161.25s-.82-10.52,6.93-11.77c0,0-4.9,6.42-4.28,13l-1.84,104.26Z"/><polygon class="cls-5" points="299.76 88.31 296.91 145.77 294.48 146.1 298.1 88.31 299.76 88.31"/><polyline class="cls-6" points="46.5 24 43.5 277 358.63 277"/><polygon class="cls-5" points="49 24.5 43.72 24.5 46.36 21.86 49 24.5"/><polygon class="cls-5" points="358 280.14 358 274.5 360.82 277.32 358 280.14"/></svg>
