<svg id="Layer_1" data-name="Layer 1" xmlns="http://www.w3.org/2000/svg" viewBox="0 0 85.04 85.04">
    <defs>
        <style>
            .cls-1,
            .cls-2 {
                fill: #E7E7E5;
            }

            .cls-1 {
                fill-rule: evenodd;
            }

        </style>
    </defs>
    <g id="Group_2" data-name="Group 2">
        <path id="Path_692" data-name="Path 692" class="cls-1" d="M42.28,26.54A16.15,16.15,0,1,0,58.43,42.68h0A16.15,16.15,0,0,0,42.28,26.54ZM32.6,42.68A9.69,9.69,0,1,0,42.28,33h0A9.68,9.68,0,0,0,32.6,42.68Z" />
        <path id="Path_693" data-name="Path 693" class="cls-2" d="M59.77,21.24a3.66,3.66,0,1,0,3.65,3.65,3.65,3.65,0,0,0-3.65-3.65Z" />
        <path id="Path_694" data-name="Path 694" class="cls-1" d="M23.08,12A11.1,11.1,0,0,0,12,23.08h0V62a11.1,11.1,0,0,0,11.1,11.1H62A11.1,11.1,0,0,0,73.06,62h0V23.08A11.1,11.1,0,0,0,62,12H23.08ZM62,17.53H23.08a5.55,5.55,0,0,0-5.55,5.55h0V62a5.56,5.56,0,0,0,5.55,5.55H62A5.56,5.56,0,0,0,67.51,62h0V23.08A5.56,5.56,0,0,0,62,17.53Z" />
    </g>
</svg>
