<svg id="Layer_1" data-name="Layer 1" xmlns="http://www.w3.org/2000/svg" viewBox="0 0 50 50"><defs><style>.cls-1{fill:none;stroke:#f2c063;stroke-miterlimit:10;}.cls-2{fill:#f2c063;}</style></defs><circle class="cls-1" cx="24.78" cy="24.76" r="19.74"/><path class="cls-2" d="M8,22.73l4.21,5.85c1.4,1.92,2.77,3.83,4.12,5.75l-.45,0a13.54,13.54,0,0,1,4.31-2.5,16,16,0,0,1,4.89-.94,18.25,18.25,0,0,1,4.94.64c.81.18,1.57.52,2.36.78s1.51.68,2.26,1l-.59.13c2.68-3.67,5.34-7.35,8.06-11l.09.65a32.4,32.4,0,0,0-8-4.36,29.69,29.69,0,0,0-9-1.84,26.13,26.13,0,0,0-4.59.26,28.66,28.66,0,0,0-4.47,1.12A30.63,30.63,0,0,0,8,22.73Zm0,0a29.13,29.13,0,0,1,8-4.86,25.19,25.19,0,0,1,4.53-1.28,26.39,26.39,0,0,1,4.7-.39,27.91,27.91,0,0,1,9.26,1.72,32.49,32.49,0,0,1,8.34,4.44l.36.27-.27.39c-2.67,3.68-5.39,7.31-8.09,11l-.23.3-.36-.16c-.72-.34-1.44-.7-2.17-1s-1.48-.58-2.25-.76a17.82,17.82,0,0,0-4.7-.65,15.07,15.07,0,0,0-4.66.77,12.9,12.9,0,0,0-4.14,2.25l-.27.22-.18-.26q-2-3-4-6Z"/><polygon class="cls-2" points="23.83 31.34 24.76 23.47 25.32 18.67 25.74 23.48 26.43 31.3 24.76 23.63 25.74 23.65 23.83 31.34"/><path class="cls-2" d="M22.24,31.44a4.16,4.16,0,0,1-1-1.85,4,4,0,0,1,0-2.09,4.08,4.08,0,0,1,1,1.84A4.13,4.13,0,0,1,22.24,31.44Z"/><path class="cls-2" d="M20.53,32.06a4.45,4.45,0,0,1-1.73-3.68A3.94,3.94,0,0,1,20.12,30,4.06,4.06,0,0,1,20.53,32.06Z"/><path class="cls-2" d="M18.2,33.12a4.39,4.39,0,0,1-1.83-3.64,4,4,0,0,1,1.36,1.6A4,4,0,0,1,18.2,33.12Z"/><path class="cls-2" d="M28.23,31.28a4.37,4.37,0,0,1,1-3.93,4,4,0,0,1,0,2.09A4.08,4.08,0,0,1,28.23,31.28Z"/><path class="cls-2" d="M29.93,31.91a4.06,4.06,0,0,1,.42-2.05,3.94,3.94,0,0,1,1.32-1.63,4,4,0,0,1-.42,2.05A4,4,0,0,1,29.93,31.91Z"/><path class="cls-2" d="M32.34,32.76a4.06,4.06,0,0,1,.47-2,4,4,0,0,1,1.36-1.59,4.43,4.43,0,0,1-1.83,3.64Z"/></svg>
