<svg id="Layer_1" data-name="Layer 1" xmlns="http://www.w3.org/2000/svg" viewBox="0 0 50 50"><defs><style>.cls-1{fill:none;stroke:#f2c063;stroke-miterlimit:10;}.cls-2{fill:#f2c063;}</style></defs><circle class="cls-1" cx="24.78" cy="24.76" r="19.74"/><path class="cls-2" d="M5.5,20.75a28,28,0,0,1,4.83-1.62,23.63,23.63,0,0,1,5.11-.59,19.43,19.43,0,0,1,5.13.67,23.52,23.52,0,0,1,4.77,2A14.28,14.28,0,0,0,29.91,23a12,12,0,0,0,4.85-.19,16.73,16.73,0,0,0,4.6-1.89A30.74,30.74,0,0,0,43.5,18a25.6,25.6,0,0,1-3.88,3.31A17.38,17.38,0,0,1,35,23.53a12.21,12.21,0,0,1-5.21.37,14.82,14.82,0,0,1-4.87-1.83,21.09,21.09,0,0,0-9.46-2.77A29.83,29.83,0,0,0,5.5,20.75Z"/><path class="cls-2" d="M36,30.5a2.27,2.27,0,0,1-2,2.25,2.25,2.25,0,0,1-1.72-.53,2.33,2.33,0,0,1-.78-1.72,2.3,2.3,0,0,1,.78-1.72A2.25,2.25,0,0,1,34,28.25,2.27,2.27,0,0,1,36,30.5Zm0,0a1.8,1.8,0,0,0-.64-1.36A1.73,1.73,0,0,0,34,28.75a1.77,1.77,0,0,0,0,3.5,1.79,1.79,0,0,0,1.37-.38A1.86,1.86,0,0,0,36,30.5Z"/><path class="cls-2" d="M31,36.5a1.24,1.24,0,0,1-2,1,1.29,1.29,0,0,1,0-2,1.21,1.21,0,0,1,1-.24A1.27,1.27,0,0,1,31,36.5Zm0,0a.75.75,0,1,0-1.5,0,.76.76,0,0,0,.5.75A.77.77,0,0,0,31,36.5Z"/><path class="cls-2" d="M37,18.5a2.27,2.27,0,0,1-2,2.25,2.25,2.25,0,0,1-1.72-.53,2.33,2.33,0,0,1-.78-1.72,2.3,2.3,0,0,1,.78-1.72A2.25,2.25,0,0,1,35,16.25,2.27,2.27,0,0,1,37,18.5Zm0,0a1.8,1.8,0,0,0-.64-1.36A1.73,1.73,0,0,0,35,16.75a1.77,1.77,0,0,0,0,3.5,1.79,1.79,0,0,0,1.37-.38A1.86,1.86,0,0,0,37,18.5Z"/><path class="cls-2" d="M8,24.5a13.59,13.59,0,0,1,5-2,11.58,11.58,0,0,1,5.51.26A10.61,10.61,0,0,1,21.05,24l2.21,1.49c.75.48,1.49.95,2.27,1.36a7.64,7.64,0,0,0,1.2.55A1.93,1.93,0,0,0,28,27.5a1.87,1.87,0,0,1-1.34.11,9.89,9.89,0,0,1-1.32-.36,19.07,19.07,0,0,1-2.47-1.13c-.8-.42-1.57-.94-2.32-1.37a9.47,9.47,0,0,0-2.32-1,12.67,12.67,0,0,0-5.1-.45A20.32,20.32,0,0,0,8,24.5Z"/></svg>
