<svg id="Layer_1" data-name="Layer 1" xmlns="http://www.w3.org/2000/svg" viewBox="0 0 50 50"><defs><style>.cls-1{fill:none;stroke:#f2c063;stroke-miterlimit:10;}.cls-2{fill:#f2c063;}</style></defs><circle class="cls-1" cx="24.78" cy="24.76" r="19.74"/><path class="cls-2" d="M10.5,17.48c0,2.56.05,5.1.12,7.59s.15,4.92.17,7.37l-.08-.19A7.71,7.71,0,0,0,14,34a10,10,0,0,0,3.74.2,18.37,18.37,0,0,0,7.08-2.71,16.78,16.78,0,0,1,7.54-2.53,10,10,0,0,1,7.53,2.71L39,32l.06-14.72,0,.17a3.3,3.3,0,0,0-1.16-1.26,5.19,5.19,0,0,0-1.68-.74,10.68,10.68,0,0,0-3.79-.15A27.46,27.46,0,0,0,25,17.59a31.17,31.17,0,0,1-7.59,2.51,10,10,0,0,1-4-.07,4.88,4.88,0,0,1-1.79-.9A3.34,3.34,0,0,1,10.5,17.48Zm0,0a3.29,3.29,0,0,0,1.15,1.57,5.09,5.09,0,0,0,1.78.79,9.67,9.67,0,0,0,3.9-.08,34.24,34.24,0,0,0,7.4-2.71,27.65,27.65,0,0,1,7.63-2.55,10.75,10.75,0,0,1,4.11.11,5,5,0,0,1,3.44,2.49l0,.06v.1L40,32v1.23l-.87-.9A8.16,8.16,0,0,0,36,30.41a10,10,0,0,0-3.66-.53,16,16,0,0,0-7.14,2.34l-1.74,1c-.59.31-1.21.55-1.81.82a15.35,15.35,0,0,1-3.89.94,9.31,9.31,0,0,1-7.51-2.3l-.08-.07v-.12c0-2.54.1-5.1.17-7.59S10.49,19.9,10.5,17.48Z"/><path class="cls-2" d="M10.5,19.58A2.31,2.31,0,0,0,11.69,21a4.35,4.35,0,0,0,1.79.46,13.46,13.46,0,0,0,3.82-.36l1-.18,1-.25c.64-.14,1.27-.33,1.91-.51,1.28-.34,2.55-.75,3.87-1.06a24.41,24.41,0,0,1-3.62,1.8,18,18,0,0,1-1.91.68,16.26,16.26,0,0,1-2,.51,11,11,0,0,1-4.13.14,4.37,4.37,0,0,1-2-.83A2.33,2.33,0,0,1,10.5,19.58Z"/><path class="cls-2" d="M39.5,30.19a10.31,10.31,0,0,0-3.67-1.44A12.81,12.81,0,0,0,32,28.61l-1,.12-1,.2c-.65.1-1.26.36-1.91.5l-1.89.66c-.63.24-1.24.52-1.89.74.54-.42,1.11-.78,1.67-1.18s1.21-.66,1.83-.95a13.85,13.85,0,0,1,4-1.08A10.68,10.68,0,0,1,36,28,7.42,7.42,0,0,1,39.5,30.19Z"/><path class="cls-2" d="M27.05,20.53c-.73.34-1.47.65-2.17,1A6.67,6.67,0,0,0,23,22.82c-.1.12-.13.24-.11.26a.3.3,0,0,0,.15.17,3.43,3.43,0,0,0,1,.39c.71.19,1.53.31,2.34.54a7.44,7.44,0,0,1,1.2.47,2.78,2.78,0,0,1,.61.4,1.29,1.29,0,0,1,.46.8,1.18,1.18,0,0,1-.29.89,3,3,0,0,1-.53.49,6.29,6.29,0,0,1-1.14.61A19.12,19.12,0,0,1,22,29c1.5-.6,3-1.18,4.39-1.9a6.85,6.85,0,0,0,.94-.6c.28-.21.47-.52.41-.55s-.24-.32-.57-.46a7.47,7.47,0,0,0-1-.38c-.73-.23-1.51-.34-2.34-.6a4,4,0,0,1-1.22-.61,1.11,1.11,0,0,1-.45-.82,1.15,1.15,0,0,1,.37-.81,6,6,0,0,1,2.25-1.18A16.29,16.29,0,0,1,27.05,20.53Z"/><path class="cls-2" d="M25.85,19.83a20.62,20.62,0,0,1,.4,4.81,20.6,20.6,0,0,1-.6,4.79,20.62,20.62,0,0,1-.4-4.81A20.6,20.6,0,0,1,25.85,19.83Z"/><path class="cls-2" d="M24.35,20.53a21.16,21.16,0,0,1,.5,4.8,20.09,20.09,0,0,1-.5,4.8,20.09,20.09,0,0,1-.5-4.8A21.16,21.16,0,0,1,24.35,20.53Z"/><path class="cls-2" d="M39.5,19.5a12,12,0,0,0-1.71-1.19A6.94,6.94,0,0,0,36,17.58,7.32,7.32,0,0,0,34,17.34c-.68,0-1.36.06-2.11.1a5,5,0,0,1,2-.88,5.12,5.12,0,0,1,2.27.05,5.05,5.05,0,0,1,2,1.07A4.11,4.11,0,0,1,39.5,19.5Z"/><path class="cls-2" d="M10.56,31c.54.3.84.5,1.16.7l.5.32a6.08,6.08,0,0,1,.63.45,1.38,1.38,0,0,1-1.66.07A1.36,1.36,0,0,1,10.56,31Z"/></svg>
