<svg id="Layer_1" data-name="Layer 1" xmlns="http://www.w3.org/2000/svg" viewBox="0 0 50 50"><defs><style>.cls-1{fill:none;stroke:#f2c063;stroke-miterlimit:10;}.cls-2{fill:#f2c063;}</style></defs><circle class="cls-1" cx="24.78" cy="24.76" r="19.74"/><path class="cls-2" d="M23,18.22A3.75,3.75,0,1,1,19,15,3.77,3.77,0,0,1,23,18.22Zm0,0A3.25,3.25,0,0,0,19,15.49,3.26,3.26,0,0,0,20,21.93a3.34,3.34,0,0,0,2.29-1.16A3.29,3.29,0,0,0,23,18.22Z"/><path class="cls-2" d="M34.8,30.18a5.87,5.87,0,0,1-.76,3.9,4.6,4.6,0,0,1-3.49,2.17A5.48,5.48,0,0,1,26.69,35a5.9,5.9,0,0,1-2.11-3.39,5.05,5.05,0,0,1,.85-4A5.26,5.26,0,0,1,29,25.41a4.91,4.91,0,0,1,4,1.22A5.83,5.83,0,0,1,34.8,30.18Zm-.1,0a4.27,4.27,0,0,0-2.09-3,5.24,5.24,0,0,0-3.43-.7,4.77,4.77,0,0,0-3,1.7,5,5,0,0,0-1.06,3.39,4.27,4.27,0,0,0,1.77,3.2,4.56,4.56,0,0,0,3.55.68,5.82,5.82,0,0,0,3.1-1.72A4.31,4.31,0,0,0,34.7,30.2Z"/><path class="cls-2" d="M34.78,16.05c-1.61,1.58-3.28,3.08-5,4.56s-3.4,2.93-5.13,4.36S21.2,27.8,19.4,29.15l-2.69,2c-.92.64-1.82,1.32-2.75,1.94.79-.8,1.63-1.55,2.44-2.32l2.52-2.25c1.67-1.49,3.4-2.92,5.13-4.35s3.49-2.83,5.28-4.18S32.91,17.31,34.78,16.05Z"/></svg>
