<svg id="Layer_1" data-name="Layer 1" xmlns="http://www.w3.org/2000/svg" viewBox="0 0 50 50"><defs><style>.cls-1{fill:none;stroke:#f2c063;stroke-miterlimit:10;}.cls-2{fill:#f2c063;}</style></defs><circle class="cls-1" cx="24.78" cy="24.76" r="19.74"/><path class="cls-2" d="M31.65,31.43A7.76,7.76,0,0,0,34,29.67,20.85,20.85,0,0,0,36,27.4a47.74,47.74,0,0,0,3.26-5l0,.36a46,46,0,0,0-3-3.66,24.89,24.89,0,0,0-3.38-3.2A10.69,10.69,0,0,0,28.81,14a5.29,5.29,0,0,0-2.17,0,4.33,4.33,0,0,0-1.87.88l-.43.36L24,14.82a2.51,2.51,0,0,0-1.58-1,4.15,4.15,0,0,0-2,.24,13.8,13.8,0,0,0-3.78,2.29,47.59,47.59,0,0,0-6.39,6.46l0-.32c.78,1.44,1.6,2.88,2.46,4.29.44.7.89,1.39,1.39,2.05a11.94,11.94,0,0,0,.78.95c.29.27.59.62,1,.64a1.79,1.79,0,0,1-1.09-.57,10.41,10.41,0,0,1-.86-.9c-.54-.64-1-1.3-1.52-2-1-1.36-1.86-2.76-2.7-4.2l-.09-.16.12-.16c.93-1.24,1.92-2.41,3-3.55a32.8,32.8,0,0,1,3.34-3.22,14.46,14.46,0,0,1,4-2.49,4.89,4.89,0,0,1,2.5-.31,3.46,3.46,0,0,1,2.19,1.37l-.74-.05A5.62,5.62,0,0,1,29,13.05a11.82,11.82,0,0,1,4.43,2.16,25.67,25.67,0,0,1,3.47,3.36c1,1.22,2,2.54,2.88,3.84l.13.18-.11.17a41.85,41.85,0,0,1-3.52,4.89,23.91,23.91,0,0,1-2.09,2.18A7.4,7.4,0,0,1,31.65,31.43Z"/><path class="cls-2" d="M31.8,26.5A5.31,5.31,0,0,0,34.35,25a13.73,13.73,0,0,0,1.85-2.33l0,.36a33,33,0,0,0-2.64-2.11,19,19,0,0,0-2.86-1.71,9.74,9.74,0,0,0-3.1-.91,5.4,5.4,0,0,0-1.56.07,3.32,3.32,0,0,0-1.32.56l-.35.26-.3-.25a3.76,3.76,0,0,0-2.74-.75,8.83,8.83,0,0,0-3,.84,23.8,23.8,0,0,0-5.44,3.5l0-.35c1,1.24,2,2.45,3,3.71-1.15-1.11-2.24-2.26-3.36-3.38l-.17-.17.19-.18A24.9,24.9,0,0,1,15.16,20,19.38,19.38,0,0,1,18,18.25a9.66,9.66,0,0,1,3.28-1,4.72,4.72,0,0,1,3.45.95h-.65a5,5,0,0,1,3.64-.86,9.76,9.76,0,0,1,3.41,1.06c.52.27,1,.57,1.52.88s1,.66,1.41,1c.9.72,1.74,1.51,2.57,2.31l.18.18-.14.19a11.62,11.62,0,0,1-2.11,2.26A5,5,0,0,1,31.8,26.5Z"/><path class="cls-2" d="M24.15,23.49a11.12,11.12,0,0,0-3-.65,4,4,0,0,0-2.79.7,3.42,3.42,0,0,0-1.1,2.55,11.14,11.14,0,0,0,.29,3v0c1.15,3,2.42,6.11,4.52,8.47a5.36,5.36,0,0,0,1.79,1.33,2.4,2.4,0,0,0,2-.06,8,8,0,0,0,3-3.45,30.29,30.29,0,0,0,1.89-4.46,11,11,0,0,0,.82-4.66A4.29,4.29,0,0,0,30.82,24a3,3,0,0,0-1.9-1.14A10.47,10.47,0,0,0,24.15,23.49Zm0,0a9.84,9.84,0,0,1,4.83-1,3.32,3.32,0,0,1,2.27,1.2,4.83,4.83,0,0,1,.89,2.43,11.55,11.55,0,0,1-.65,5,31.74,31.74,0,0,1-1.88,4.62,13.82,13.82,0,0,1-1.35,2.15,5.73,5.73,0,0,1-2,1.75,3.23,3.23,0,0,1-2.78.08,6,6,0,0,1-2.11-1.59,18.43,18.43,0,0,1-2.71-4.25,31.83,31.83,0,0,1-1.83-4.63v0h0A11.92,11.92,0,0,1,16.66,26a3.88,3.88,0,0,1,1.43-2.87,4.31,4.31,0,0,1,3.09-.58A10.12,10.12,0,0,1,24.15,23.49Z"/><path class="cls-2" d="M24.15,23.49a9.57,9.57,0,0,1,.5,3.19,9.63,9.63,0,0,1-.5,3.2,9.15,9.15,0,0,1-.5-3.2A9.09,9.09,0,0,1,24.15,23.49Z"/></svg>
