<svg id="Layer_1" data-name="Layer 1" xmlns="http://www.w3.org/2000/svg" viewBox="0 0 180 50" fill="white">
    <path d="M2.4,7.89V20a.85.85,0,0,0,.85.85H7.12A.86.86,0,0,0,8,20V15.1a1.09,1.09,0,0,1,0-.18,4.44,4.44,0,0,1,1.64-2.65.87.87,0,0,1,.45-.12h1.86a.85.85,0,0,1,.85.87l-.37,25.1a.86.86,0,0,1-.27.61,7.16,7.16,0,0,1-2.4,1.54.87.87,0,0,0-.66.82v2.62c0,.74.39,1.12.85,1.12H22.22a.85.85,0,0,0,.85-.85V41.31a.83.83,0,0,0-.56-.79,8.11,8.11,0,0,1-2.4-1.78.86.86,0,0,1-.27-.62V13.75a.85.85,0,0,1,.85-.85H22.2a.85.85,0,0,1,.53.18,3.39,3.39,0,0,1,1.21,2.79v4.25a.85.85,0,0,0,.83.85l4.24.08a.85.85,0,0,0,.87-.85V7.89A.85.85,0,0,0,29,7H3.25A.85.85,0,0,0,2.4,7.89Z" />
    <path d="M32.12,7.89v2.28a.84.84,0,0,0,.52.79A4.93,4.93,0,0,1,35,12.69a.86.86,0,0,1,.12.44v25.2a.79.79,0,0,0,.05.3c.4,1,3.08,6.94,12.57,6.94,0,0,9.54,0,11.84-7.29a.86.86,0,0,0,0-.28V13.24a.83.83,0,0,1,.3-.64,11.06,11.06,0,0,1,2.86-1.73.86.86,0,0,0,.56-.79V7.89A.86.86,0,0,0,62.45,7H51.1a.85.85,0,0,0-.85.85v2.18a.84.84,0,0,0,.54.79c.77.3,2.11,1,2.11,2V37.13a.81.81,0,0,1-.16.5c-.76,1-4.16,4.86-9.23,0a.86.86,0,0,1-.27-.62V13.26a.82.82,0,0,1,.28-.62,9,9,0,0,1,2.81-1.86A.88.88,0,0,0,47,10V7.89A.85.85,0,0,0,46.11,7H33A.85.85,0,0,0,32.12,7.89Z" />
    <path d="M86.58,24.93a10.51,10.51,0,0,0,4.93-8.29s0,0,0-.05c0-.48.41-8.7-7.78-9.54H66.37a.85.85,0,0,0-.85.85v2.34a.83.83,0,0,0,.54.79,4.8,4.8,0,0,1,2.32,1.67.85.85,0,0,1,.11.44V38.44a.87.87,0,0,1-.2.55,4.69,4.69,0,0,1-2.14,1.54.89.89,0,0,0-.63.87v2.18a.85.85,0,0,0,.85.85H85.16a1,1,0,0,0,.24,0c.91-.29,6.86-2.37,6.86-9.23a8.9,8.9,0,0,0-5.58-8.76A.84.84,0,0,1,86.58,24.93Zm-9.81-12H80.2a.83.83,0,0,1,.41.1,5.09,5.09,0,0,1,2.74,4.35,6.36,6.36,0,0,1-2.53,5.18.84.84,0,0,1-.49.15H76.77a.85.85,0,0,1-.85-.85V13.75A.85.85,0,0,1,76.77,12.9Zm6.91,20.44a6.36,6.36,0,0,1-2.52,5.18.84.84,0,0,1-.49.15H77.11a.85.85,0,0,1-.85-.85V29.74a.85.85,0,0,1,.85-.85h3.43A.83.83,0,0,1,81,29,5.07,5.07,0,0,1,83.68,33.34Z" />
    <path d="M108,6.21s-11.18-.74-12.71,9.58a.76.76,0,0,0,0,.15V34.23c.08.78,1.39,11.21,12.72,10.91,0,0,10.44,2.09,12.61-11.28,0,0,0-.1,0-.15V17.43S120.68,6.21,108,6.21ZM112.29,36c-.73,4.13-4,4.51-4.36,4.54h-.07c-4.37.15-4.46-4.35-4.46-4.35V16.61c0-4.72,3.71-5.28,4.39-5.34a.74.74,0,0,1,.21,0,4.87,4.87,0,0,1,4.31,4.88V35.83A1.1,1.1,0,0,1,112.29,36Z" />
    <path d="M148.7,36.66s-1.49-8.91-6.69-8.91V27s6.69,0,7.43-9.66c0,0,.74-10.39-8.91-10.39H122.7v3.41a.84.84,0,0,0,.47.76c.83.42,2.51,1.39,2.51,2.51v24.9a.84.84,0,0,1-.52.78,22,22,0,0,0-2,1,.84.84,0,0,0-.42.73v2.6a.86.86,0,0,0,.85.85h12.09a.85.85,0,0,0,.85-.85V41a.83.83,0,0,0-.41-.73A18,18,0,0,0,133.64,39a.82.82,0,0,1-.54-.79v-7.4A.85.85,0,0,1,134,30h3.15a.86.86,0,0,1,.72.4c.8,1.26,3.21,5.57,4.94,13.43a.84.84,0,0,0,.82.67h7.57a.85.85,0,0,0,.85-.85V41.1a.83.83,0,0,0-.43-.74A5.74,5.74,0,0,1,148.7,36.66Zm-8.17-15.12a.93.93,0,0,1-.16.5c-1.41,2-2.57,2-2.57,2H134a.85.85,0,0,1-.85-.85V13.75a.85.85,0,0,1,.85-.85H138a1,1,0,0,1,.34.06A3.78,3.78,0,0,1,140.53,16Z" />
    <path d="M176.17,7.81V19.37a.85.85,0,0,1-.85.85h-3.55a.85.85,0,0,1-.85-.85c0-2.09-.39-7.29-5-8h-.2c-.59,0-3.61.51-3.61,5.19V35.92s0,4.45,4.46,4.45A2.91,2.91,0,0,0,170,38.48l.23-6.74a.83.83,0,0,0-.18-.57A3.26,3.26,0,0,0,168,30a.85.85,0,0,1-.73-.83V25.63a.85.85,0,0,1,.85-.85h8a.85.85,0,0,1,.85.85v10.5a.88.88,0,0,0,.38.73c.44.28,1.1.79,1.1,1.29v3.61a.87.87,0,0,1-.39.72,21.74,21.74,0,0,1-11.49,3.09s-12.58,1.48-12.63-10.33v-.12c-.24-1.36-4.74-28.91,10.07-28.91,0,0,3.92,0,6.32,1.65a.85.85,0,0,0,1.16-.16c.28-.37.65-.74,1-.74h2.86A.85.85,0,0,1,176.17,7.81Z" /></svg>
