<?xml version="1.0" encoding="UTF-8"?>
<svg width="212px" height="77px" viewBox="0 0 212 77" version="1.1" xmlns="http://www.w3.org/2000/svg" xmlns:xlink="http://www.w3.org/1999/xlink">
    <!-- Generator: Sketch 46.2 (44496) - http://www.bohemiancoding.com/sketch -->
    <title>Tuborgklammen Hvid</title>
    <desc>Created with Sketch.</desc>
    <defs></defs>
    <g id="Page-1" stroke="none" stroke-width="1" fill="none" fill-rule="evenodd">
        <g id="iPhone-7-Landingpage" transform="translate(-82.000000, -4145.000000)" fill="#FFFFFF">
            <g id="Footer-mobile" transform="translate(-8.000000, 4074.000000)">
                <g id="Tuborgklammen-Hvid" transform="translate(90.000000, 71.000000)">
                    <g id="Group-9">
                        <path d="M182.37412,70.3147564 L173.479849,43.7686687 C173.479849,43.7686687 172.03748,40.1080167 170.274508,38.0224874 C168.511764,35.936733 163.666987,34.5264173 161.460331,33.9786365 C155.64402,32.5349991 137.66203,28.4449933 137.66203,28.4449933 C139.264587,28.4449933 187.181791,32.7016073 187.181791,32.7016073 C187.181791,32.7016073 195.835781,33.0422535 198.560105,39.0014231 C201.284656,44.9605927 203.848792,52.6540635 203.848792,52.6540635 L207.855298,64.5257974 C207.855298,64.5257974 192.149877,60.9502506 182.37412,70.3147564 L182.37412,70.3147564 Z M156.115307,55.3704523 C154.984037,55.9553822 153.765433,56.3779816 152.540946,56.6378003 C151.316686,56.8973939 150.043781,57.0277535 148.770197,57.0277535 C147.414709,57.0277535 146.153796,56.8163412 145.010987,56.393967 C143.867951,55.9718178 142.874244,55.3666249 142.041855,54.578388 C141.208788,53.7906015 140.557177,52.8357564 140.091546,51.7147535 C139.626141,50.5935254 139.392195,49.3428383 139.392195,47.9615664 C139.392195,46.5807447 139.623879,45.3293822 140.089509,44.2083792 C140.554914,43.0873763 141.203358,42.1329816 142.036199,41.3447447 C142.868587,40.556733 143.856412,39.9517652 144.999448,39.5289406 C146.142257,39.1067915 147.390952,38.8953792 148.746666,38.8953792 C150.134056,38.8953792 151.411712,39.0622126 152.579183,39.3949787 C153.746427,39.728195 154.771358,40.300967 155.652844,41.1132944 L152.958837,44.0377184 C152.43619,43.5016453 151.848382,43.0957067 151.195413,42.8192272 C150.542218,42.543198 149.72612,42.404733 148.74644,42.404733 C147.929663,42.404733 147.190944,42.543198 146.52983,42.8192272 C145.868489,43.0957067 145.301044,43.4813822 144.827947,43.9767038 C144.353945,44.4724757 143.990807,45.061233 143.737855,45.7436512 C143.484677,46.4260693 143.358201,47.1656746 143.358201,47.9615664 C143.358201,48.774119 143.484677,49.5175518 143.737855,50.1914143 C143.990807,50.8659523 144.353945,51.4508822 144.827947,51.9462038 C145.301044,52.4419757 145.868489,52.8278763 146.52983,53.1039056 C147.190944,53.3803851 147.929663,53.5181746 148.74644,53.5181746 C149.578829,53.5181746 150.258269,53.424964 150.86282,53.2378675 C151.466466,53.0512213 152.042735,52.8600722 152.268989,52.6650956 L152.268989,49.7573325 L149.327687,49.7573325 L149.327687,46.3801395 L156.115307,46.3801395 L156.115307,55.3704523 Z M133.782227,56.5117184 L130.157638,49.7573325 L128.286064,49.7573325 L128.286064,56.5117184 L124.439746,56.5117184 L124.439746,39.4006073 L131.161753,39.4006073 C132.043465,39.4006073 132.879926,39.4526161 133.672267,39.6232769 C134.463704,39.7939377 135.157625,40.0616365 135.753804,40.459695 C136.349531,40.8579787 136.82308,41.3857213 137.174453,42.0598091 C137.525147,42.7343471 137.70072,43.5707652 137.70072,44.5780693 C137.70072,45.7965605 137.38238,46.8302067 136.745702,47.6832857 C136.109023,48.5363646 135.178214,49.0370898 133.953727,49.2644874 L138.36206,56.5117184 L133.782227,56.5117184 Z M121.157706,51.7147535 C120.692075,52.8357564 120.043179,53.7906015 119.210564,54.578388 C118.377723,55.3666249 117.389672,55.9718178 116.247089,56.393967 C115.103828,56.8163412 113.854905,57.0277535 112.49987,57.0277535 C111.144382,57.0277535 109.89546,56.8163412 108.752651,56.393967 C107.609616,55.9718178 106.622018,55.3666249 105.789177,54.578388 C104.956562,53.7906015 104.307439,52.8357564 103.842261,51.7147535 C103.376856,50.5935254 103.144267,49.3428383 103.144267,47.9615664 C103.144267,46.5807447 103.376856,45.3293822 103.842261,44.2083792 C104.307439,43.0873763 104.956562,42.1329816 105.789177,41.3447447 C106.622018,40.556733 107.609616,39.9517652 108.752651,39.5289406 C109.89546,39.1067915 111.144382,38.8953792 112.49987,38.8953792 C113.854905,38.8953792 115.103828,39.1067915 116.247089,39.5289406 C117.389672,39.9517652 118.377723,40.556733 119.210564,41.3447447 C120.043179,42.1329816 120.692075,43.0873763 121.157706,44.2083792 C121.622658,45.3293822 121.855473,46.5807447 121.855473,47.9615664 C121.855473,49.3428383 121.622658,50.5935254 121.157706,51.7147535 L121.157706,51.7147535 Z M101.234005,54.0666307 C100.842133,54.6758763 100.335776,55.1673705 99.7156141,55.5411132 C99.0947731,55.915081 98.3967795,56.144505 97.6216333,56.3066102 C96.8458083,56.4691658 96.0742822,56.5117184 95.3070549,56.5117184 L88.2391061,56.5117184 L88.2391061,39.4006073 L94.6703761,39.4006073 C95.4210869,39.4006073 96.176549,39.420195 96.9358574,39.5255635 C97.6949396,39.6316073 98.3766429,39.8259085 98.9807411,40.1426892 C99.584613,40.459695 100.074453,40.8942272 100.450261,41.4627213 C100.825616,42.0316658 101.013407,42.7829787 101.013407,43.7249904 C101.013407,44.6998734 100.711132,45.5061219 100.164276,46.1477886 C99.6169673,46.7901307 98.8730442,47.2467272 97.9680282,47.5227564 L97.9680282,47.5716132 C98.6467902,47.6531161 99.086628,47.8113939 99.5520324,48.0468968 C100.017211,48.2823997 100.431708,48.5829699 100.766564,48.9486073 C101.100967,49.3142447 101.365232,49.7406716 101.545104,50.2281132 C101.724523,50.7153295 101.818193,51.2356424 101.818193,51.787926 C101.818193,52.697967 101.625877,53.4573851 101.234005,54.0666307 L101.234005,54.0666307 Z M84.619042,49.9356482 C84.619042,50.9591629 84.4932448,51.9016249 84.1832768,52.7628091 C83.8728564,53.6239933 83.4264572,54.3712535 82.8142139,55.0048149 C82.2017443,55.6386015 81.4458297,56.1343734 80.5315372,56.4914553 C79.6170186,56.8487623 78.5674263,57.0277535 77.3759727,57.0277535 C76.1673238,57.0277535 75.1080026,56.8487623 74.1939364,56.4914553 C73.2791915,56.1343734 72.517168,55.6386015 71.9049247,55.0048149 C71.2924551,54.3712535 70.8725276,53.6239933 70.5625597,52.7628091 C70.2523654,51.9016249 70.1387859,50.9591629 70.1387859,49.9356482 L70.1387859,39.4006073 L73.9851039,39.4006073 L73.9851039,49.7893032 C73.9851039,50.3256015 74.0167795,50.8213734 74.18828,51.2759436 C74.3597806,51.730964 74.5735906,52.125195 74.8840111,52.4579611 C75.1939791,52.7911775 75.5519129,53.0512213 75.9847368,53.2378675 C76.4171082,53.424964 76.8800239,53.5181746 77.3863804,53.5181746 C77.8920581,53.5181746 78.3540687,53.424964 78.7789737,53.2378675 C79.2032,53.0512213 79.5690527,52.7911775 79.8794732,52.4579611 C80.1894412,52.125195 80.3871872,51.730964 80.5586877,51.2759436 C80.729962,50.8213734 80.772724,50.3256015 80.772724,49.7893032 L80.772724,39.4006073 L84.619042,39.4006073 L84.619042,49.9356482 Z M68.1024999,42.7778003 L63.1249118,42.7778003 L63.1249118,56.5117184 L59.2785938,56.5117184 L59.2785938,42.7778003 L54.3010058,42.7778003 L54.3010058,39.4006073 L68.1024999,39.4006073 L68.1024999,42.7778003 Z M50.16101,33.9786365 C47.9543547,34.5264173 43.1095778,35.936733 41.3466066,38.0224874 C39.5838617,40.1080167 38.1414924,43.7686687 38.1414924,43.7686687 L29.2472213,70.3147564 C19.4714647,60.9502506 3.76604312,64.5257974 3.76604312,64.5257974 L7.77254899,52.6540635 C7.77254899,52.6540635 10.3366856,44.9605927 13.06101,39.0014231 C15.7855607,33.0422535 24.4393238,32.7016073 24.4393238,32.7016073 C24.4393238,32.7016073 72.3567539,28.4449933 73.959311,28.4449933 C73.959311,28.4449933 55.9773217,32.5349991 50.16101,33.9786365 L50.16101,33.9786365 Z M209.417808,60.8730254 C209.417808,60.8730254 203.808745,44.5508266 201.244609,38.251236 C198.680472,31.9514202 189.705881,30.6052711 189.705881,30.6052711 L147.718342,26.7210488 C147.718342,26.7210488 126.403857,25.8483822 120.634607,23.8054056 C114.86513,21.7622038 113.823456,15.5351102 113.823456,15.5351102 L110.71631,15.5351102 L109.090901,12.1299991 L110.207691,9.36317749 C111.329458,7.40508099 110.197736,5.91596404 110.197736,5.91596404 L106.010905,2.25146199e-05 L105.890765,2.25146199e-05 L101.703934,5.84144064 C101.703934,5.84144064 100.572212,7.45866579 101.693979,9.41676228 L102.810769,12.2310898 L101.18536,15.5351102 L98.0782139,15.5351102 C98.0782139,15.5351102 97.0365404,21.7622038 91.2672896,23.8054056 C85.4978126,25.8483822 64.1835543,26.8700956 64.1835543,26.8700956 L22.1957891,30.6800196 C22.1957891,30.6800196 13.2214241,31.9890196 10.6572875,38.2888354 C8.09315091,44.588426 2.48408794,60.892388 2.48408794,60.892388 L4.52508004e-05,68.7119406 C4.52508004e-05,68.7119406 6.33017972,66.1527038 10.1764978,66.3229143 C14.0225895,66.4931249 16.0930399,66.913698 18.0290954,67.3437272 C21.5873921,68.1342155 26.8432726,69.3905313 30.3689887,75.5201365 C30.3689887,75.5201365 42.2280922,68.3789494 51.0422694,66.8463792 C59.8564465,65.3140342 65.4555543,65.1399962 70.273407,65.3349728 C75.8899364,65.5623705 88.1262053,67.4855693 92.5492448,69.2732301 C99.9210527,72.2528149 105.890765,77.0000225 105.890765,77.0000225 L106.010905,77.0000225 C106.010905,77.0000225 111.980617,72.2528149 119.352425,69.2732301 C123.775465,67.4853442 136.011734,65.8498822 141.628489,65.6224845 C146.446116,65.4275079 152.045223,65.4574523 160.859401,66.9897974 C169.673578,68.5221424 181.532681,75.5908325 181.532681,75.5908325 C185.058397,69.4614523 190.314278,68.1677623 193.872575,67.3774991 C195.80863,66.9474699 197.87908,66.5064085 201.725399,66.336198 C205.57149,66.1659874 211.901625,68.7114904 211.901625,68.7114904 L209.417808,60.8730254 Z" id="Fill-7"></path>
                        <path d="M132.605233,43.1131969 C132.323967,42.981862 132.001703,42.8932323 131.63844,42.8468788 C131.274719,42.8003107 130.919244,42.7777778 130.572243,42.7777778 L128.057803,42.7777778 L128.057803,46.4259703 L130.324418,46.4259703 C130.671419,46.4259703 131.039033,46.4594478 131.42772,46.4362711 C131.81572,46.4130943 132.167073,46.3658824 132.481091,46.2497841 C132.79511,46.1336857 133.055532,45.9630791 133.262129,45.7152166 C133.468956,45.4677833 133.572254,45.1248532 133.572254,44.6754817 C133.572254,44.2574418 133.481095,43.9273876 133.299464,43.6795251 C133.117374,43.4318772 132.88604,43.244961 132.605233,43.1131969" id="Path"></path>
                        <path d="M116.750563,43.7225914 C116.265669,43.2323258 115.685139,42.8503643 115.008511,42.576707 C114.331651,42.3034953 113.575365,42.1666667 112.739884,42.1666667 C111.904172,42.1666667 111.148349,42.3034953 110.471489,42.576707 C109.794629,42.8503643 109.213868,43.2323258 108.729438,43.7225914 C108.244544,44.2133027 107.872885,44.7960502 107.613997,45.4715025 C107.354646,46.1469547 107.225434,46.8790104 107.225434,47.6665552 C107.225434,48.4710365 107.354646,49.2066578 107.613997,49.8738647 C107.872885,50.5415173 108.244544,51.1204764 108.729438,51.6107419 C109.213868,52.1014532 109.794629,52.4831919 110.471489,52.7564035 C111.148349,53.0300608 111.904172,53.1666667 112.739884,53.1666667 C113.575365,53.1666667 114.331651,53.0300608 115.008511,52.7564035 C115.685139,52.4831919 116.265669,52.1014532 116.750563,51.6107419 C117.234993,51.1204764 117.606652,50.5415173 117.866003,49.8738647 C118.12466,49.2066578 118.254335,48.4710365 118.254335,47.6665552 C118.254335,46.8790104 118.12466,46.1469547 117.866003,45.4715025 C117.606652,44.7960502 117.234993,44.2133027 116.750563,43.7225914" id="Path"></path>
                        <path d="M96.9185426,49.749133 C96.5970344,49.6247846 96.250218,49.5793123 95.8785621,49.5327625 C95.5064375,49.4859972 95.1596211,49.5030223 94.8385816,49.5030223 L91.9075145,49.5030223 L91.9075145,53.1666667 L95.3965342,53.1666667 C95.7009359,53.1666667 96.0093212,53.1414522 96.3223933,53.0791702 C96.6349968,53.0171038 96.9185426,52.9112891 97.1720935,52.7554765 C97.4258787,52.6003104 97.6327969,52.3994564 97.7937853,52.1505441 C97.9540707,51.9018473 98.0346821,51.5992734 98.0346821,51.2415293 C98.0346821,50.8529675 97.9287625,50.5383251 97.7176263,50.2969556 C97.5060214,50.0560171 97.2395821,49.8736969 96.9185426,49.749133" id="Path"></path>
                        <path d="M95.3402917,46.3838219 C95.6143233,46.3178241 95.8609951,46.2295979 96.0805244,46.0806447 C96.2998365,45.9319206 96.4761547,45.7430937 96.6094791,45.4951437 C96.7423692,45.2469647 96.8092486,44.9540996 96.8092486,44.6069239 C96.8092486,44.2432488 96.7347693,43.9437381 96.5860279,43.704038 C96.4368523,43.4643378 96.245117,43.2796357 96.0101708,43.1469527 C95.7750074,43.0147281 95.5085758,42.9212312 95.211093,42.863254 C94.913176,42.805506 94.6232932,42.7777778 94.3412274,42.7777778 L91.9075145,42.7777778 L91.9075145,46.4443198 L94.50582,46.4443198 C94.7878858,46.4443198 95.0658259,46.4500488 95.3402917,46.3838219" id="Path"></path>
                    </g>
                </g>
            </g>
        </g>
    </g>
</svg>
